<?xml version="1.0" encoding="UTF-8" standalone="no"?><!-- Generator: Gravit.io --><svg xmlns="http://www.w3.org/2000/svg" xmlns:xlink="http://www.w3.org/1999/xlink" style="isolation:isolate" viewBox="0 0 500 500" width="500pt" height="500pt"><defs><clipPath id="_clipPath_6oFMTclIHxSCgSQKndYZB9Qfk0I5whwV"><rect width="500" height="500"/></clipPath></defs><g clip-path="url(#_clipPath_6oFMTclIHxSCgSQKndYZB9Qfk0I5whwV)"><path d=" M 203.454 245.592 C 203.454 217.971 225.879 195.546 253.5 195.546 C 281.121 195.546 303.546 217.971 303.546 245.592 C 303.546 273.214 281.121 295.638 253.5 295.638 C 225.879 295.638 203.454 273.214 203.454 245.592 Z " fill="none" vector-effect="non-scaling-stroke" stroke-width="1" stroke="rgb(0,0,0)" stroke-linejoin="miter" stroke-linecap="square" stroke-miterlimit="3"/><path d=" M 253.5 295.638 L 253.5 295.638 Q 184.315 424.828 253.5 424.828 Q 322.685 424.828 253.5 295.638 L 253.5 295.638 L 253.5 295.638 L 253.5 295.638" fill="none" vector-effect="non-scaling-stroke" stroke-width="1" stroke="rgb(0,0,0)" stroke-linejoin="miter" stroke-linecap="square" stroke-miterlimit="3"/><path d=" M 253.5 195.546 L 253.5 195.546 Q 322.685 66.357 253.5 66.357 Q 184.315 66.357 253.5 195.546 L 253.5 195.546 L 253.5 195.546 L 253.5 195.546" fill="none" vector-effect="non-scaling-stroke" stroke-width="1" stroke="rgb(0,0,0)" stroke-linejoin="miter" stroke-linecap="square" stroke-miterlimit="3"/><path d=" M 303.546 245.592 L 303.546 245.592 Q 432.736 314.777 432.736 245.592 Q 432.736 176.408 303.546 245.592 L 303.546 245.592 L 303.546 245.592 L 303.546 245.592" fill="none" vector-effect="non-scaling-stroke" stroke-width="1" stroke="rgb(0,0,0)" stroke-linejoin="miter" stroke-linecap="square" stroke-miterlimit="3"/><path d=" M 203.454 245.592 L 203.454 245.592 Q 74.264 176.408 74.264 245.592 Q 74.264 314.777 203.454 245.592 L 203.454 245.592 L 203.454 245.592 L 203.454 245.592" fill="none" vector-effect="non-scaling-stroke" stroke-width="1" stroke="rgb(0,0,0)" stroke-linejoin="miter" stroke-linecap="square" stroke-miterlimit="3"/><path d=" M 278.523 288.934 L 278.523 288.934 Q 283.202 435.407 343.118 400.815 Q 403.033 366.223 278.523 288.934 L 278.523 288.934 L 278.523 288.934 L 278.523 288.934" fill="none" vector-effect="non-scaling-stroke" stroke-width="1" stroke="rgb(0,0,0)" stroke-linejoin="miter" stroke-linecap="square" stroke-miterlimit="3"/><path d=" M 228.477 202.251 L 228.477 202.251 Q 223.798 55.777 163.882 90.37 Q 103.967 124.962 228.477 202.251 L 228.477 202.251 L 228.477 202.251 L 228.477 202.251" fill="none" vector-effect="non-scaling-stroke" stroke-width="1" stroke="rgb(0,0,0)" stroke-linejoin="miter" stroke-linecap="square" stroke-miterlimit="3"/><path d=" M 296.841 220.569 L 296.841 220.569 Q 443.315 215.89 408.723 155.975 Q 374.13 96.059 296.841 220.569 L 296.841 220.569 L 296.841 220.569 L 296.841 220.569" fill="none" vector-effect="non-scaling-stroke" stroke-width="1" stroke="rgb(0,0,0)" stroke-linejoin="miter" stroke-linecap="square" stroke-miterlimit="3"/><path d=" M 210.159 270.615 L 210.159 270.615 Q 63.685 275.295 98.277 335.21 Q 132.87 395.126 210.159 270.615 L 210.159 270.615 L 210.159 270.615 L 210.159 270.615" fill="none" vector-effect="non-scaling-stroke" stroke-width="1" stroke="rgb(0,0,0)" stroke-linejoin="miter" stroke-linecap="square" stroke-miterlimit="3"/><path d=" M 296.841 270.615 L 296.841 270.615 Q 374.13 395.126 408.723 335.21 Q 443.315 275.294 296.841 270.615 L 296.841 270.615 L 296.841 270.615 L 296.841 270.615" fill="none" vector-effect="non-scaling-stroke" stroke-width="1" stroke="rgb(0,0,0)" stroke-linejoin="miter" stroke-linecap="square" stroke-miterlimit="3"/><path d=" M 210.159 220.569 L 210.159 220.569 Q 132.87 96.059 98.277 155.974 Q 63.685 215.89 210.159 220.569 L 210.159 220.569 L 210.159 220.569 L 210.159 220.569" fill="none" vector-effect="non-scaling-stroke" stroke-width="1" stroke="rgb(0,0,0)" stroke-linejoin="miter" stroke-linecap="square" stroke-miterlimit="3"/><path d=" M 278.523 202.251 L 278.523 202.251 Q 403.033 124.962 343.118 90.37 Q 283.202 55.777 278.523 202.251 L 278.523 202.251 L 278.523 202.251 L 278.523 202.251" fill="none" vector-effect="non-scaling-stroke" stroke-width="1" stroke="rgb(0,0,0)" stroke-linejoin="miter" stroke-linecap="square" stroke-miterlimit="3"/><path d=" M 228.477 288.934 L 228.477 288.934 Q 103.967 366.223 163.882 400.815 Q 223.798 435.407 228.477 288.934 L 228.477 288.934 L 228.477 288.934 L 228.477 288.934" fill="none" vector-effect="non-scaling-stroke" stroke-width="1" stroke="rgb(0,0,0)" stroke-linejoin="miter" stroke-linecap="square" stroke-miterlimit="3"/></g></svg>