<?xml version="1.0" encoding="UTF-8" standalone="no"?><!-- Generator: Gravit.io --><svg xmlns="http://www.w3.org/2000/svg" xmlns:xlink="http://www.w3.org/1999/xlink" style="isolation:isolate" viewBox="0 0 500 500" width="500pt" height="500pt"><defs><clipPath id="_clipPath_TmrBjkVfUoabVxavwGznEzSDubizU2KA"><rect x="96.432" y="67.846" width="321.068" height="363.62"/></clipPath></defs><g clip-path="url(#_clipPath_TmrBjkVfUoabVxavwGznEzSDubizU2KA)"><path d=" M 316.484 429.966 Q 266.374 341.466 316.484 241.281 Q 275.5 223.062 251.5 241.281 Q 227.5 259.5 192.704 241.281 Q 243.813 333.466 192.704 429.966 L 316.484 429.966 Z " fill="rgb(255,255,255)" vector-effect="non-scaling-stroke" stroke-width="1" stroke="rgb(0,0,0)" stroke-linejoin="miter" stroke-linecap="square" stroke-miterlimit="3"/><path d=" M 172 183.598 L 172 183.598 Q 94.4 116.454 98.1 187.45 Q 101.801 258.446 172 183.598 L 172 183.598 L 172 183.598 L 172 183.598" fill="none" vector-effect="non-scaling-stroke" stroke-width="1" stroke="rgb(0,0,0)" stroke-linejoin="miter" stroke-linecap="square" stroke-miterlimit="3"/><path d=" M 189.506 214.396 L 189.506 214.396 Q 86.95 217.898 137.923 267.454 Q 188.896 317.01 189.506 214.396 L 189.506 214.396 L 189.506 214.396 L 189.506 214.396" fill="none" vector-effect="non-scaling-stroke" stroke-width="1" stroke="rgb(0,0,0)" stroke-linejoin="miter" stroke-linecap="square" stroke-miterlimit="3"/><path d=" M 176.608 156.369 L 176.608 156.369 Q 181.388 53.864 127.883 100.675 Q 74.377 147.486 176.608 156.369 L 176.608 156.369 L 176.608 156.369 L 176.608 156.369" fill="none" vector-effect="non-scaling-stroke" stroke-width="1" stroke="rgb(0,0,0)" stroke-linejoin="miter" stroke-linecap="square" stroke-miterlimit="3"/><path d=" M 212.546 143.346 L 212.546 143.346 Q 283.638 69.346 212.546 69.346 Q 141.454 69.346 212.546 143.346 L 212.546 143.346 L 212.546 143.346 L 212.546 143.346" fill="none" vector-effect="non-scaling-stroke" stroke-width="1" stroke="rgb(0,0,0)" stroke-linejoin="miter" stroke-linecap="square" stroke-miterlimit="3"/><path d=" M 253.5 106.346 L 253.5 106.346 Q 182.408 180.346 253.5 180.346 Q 324.592 180.346 253.5 106.346 L 253.5 106.346 L 253.5 106.346 L 253.5 106.346" fill="none" vector-effect="non-scaling-stroke" stroke-width="1" stroke="rgb(0,0,0)" stroke-linejoin="miter" stroke-linecap="square" stroke-miterlimit="3"/><path d=" M 226.184 241.281 L 226.184 241.281 Q 297.738 219.24 252.383 194.071 Q 207.028 168.901 226.184 241.281 L 226.184 241.281 L 226.184 241.281 L 226.184 241.281" fill="none" vector-effect="non-scaling-stroke" stroke-width="1" stroke="rgb(0,0,0)" stroke-linejoin="miter" stroke-linecap="square" stroke-miterlimit="3"/><path d=" M 183.918 159.735 L 183.918 159.735 Q 165.76 222.822 205.994 201.614 Q 246.227 180.405 183.918 159.735 L 183.918 159.735 L 183.918 159.735 L 183.918 159.735" fill="none" vector-effect="non-scaling-stroke" stroke-width="1" stroke="rgb(0,0,0)" stroke-linejoin="miter" stroke-linecap="square" stroke-miterlimit="3"/><path d=" M 323.236 168.459 L 323.236 168.459 Q 247.564 180.49 289.894 212.521 Q 332.224 244.552 323.236 168.459 L 323.236 168.459 L 323.236 168.459 L 323.236 168.459" fill="none" vector-effect="non-scaling-stroke" stroke-width="1" stroke="rgb(0,0,0)" stroke-linejoin="miter" stroke-linecap="square" stroke-miterlimit="3"/><path d=" M 341.932 186.486 L 341.932 186.486 Q 419.532 253.63 415.832 182.634 Q 412.131 111.638 341.932 186.486 L 341.932 186.486 L 341.932 186.486 L 341.932 186.486" fill="none" vector-effect="non-scaling-stroke" stroke-width="1" stroke="rgb(0,0,0)" stroke-linejoin="miter" stroke-linecap="square" stroke-miterlimit="3"/><path d=" M 324.81 156.369 L 324.81 156.369 Q 427.367 152.868 376.393 103.311 Q 325.42 53.755 324.81 156.369 L 324.81 156.369 L 324.81 156.369 L 324.81 156.369" fill="none" vector-effect="non-scaling-stroke" stroke-width="1" stroke="rgb(0,0,0)" stroke-linejoin="miter" stroke-linecap="square" stroke-miterlimit="3"/><path d=" M 328.551 205.05 L 328.551 205.05 Q 311.751 306.282 370.39 266.088 Q 429.029 225.893 328.551 205.05 L 328.551 205.05 L 328.551 205.05 L 328.551 205.05" fill="none" vector-effect="non-scaling-stroke" stroke-width="1" stroke="rgb(0,0,0)" stroke-linejoin="miter" stroke-linecap="square" stroke-miterlimit="3"/><path d=" M 294.653 143.346 L 294.653 143.346 Q 365.48 69.092 294.388 69.347 Q 223.296 69.601 294.653 143.346 L 294.653 143.346 L 294.653 143.346 L 294.653 143.346" fill="none" vector-effect="non-scaling-stroke" stroke-width="1" stroke="rgb(0,0,0)" stroke-linejoin="miter" stroke-linecap="square" stroke-miterlimit="3"/></g></svg>