<?xml version="1.0" encoding="UTF-8" standalone="no"?><!-- Generator: Gravit.io --><svg xmlns="http://www.w3.org/2000/svg" xmlns:xlink="http://www.w3.org/1999/xlink" style="isolation:isolate" viewBox="0 0 500 500" width="500pt" height="500pt"><defs><clipPath id="_clipPath_qXkVrSCLSxfRP39DeMfOWZU7x8jDwjug"><rect x="70.006" y="65.5" width="371.494" height="343.124"/></clipPath></defs><g clip-path="url(#_clipPath_qXkVrSCLSxfRP39DeMfOWZU7x8jDwjug)"><path d=" M 71.506 67 L 90 67 L 90 263 L 71.506 263 L 71.506 67 Z " fill="none" vector-effect="non-scaling-stroke" stroke-width="1" stroke="rgb(0,0,0)" stroke-linejoin="miter" stroke-linecap="square" stroke-miterlimit="3"/><path d=" M 101.857 133.788 L 120.351 133.788 L 120.351 329.788 L 101.857 329.788 L 101.857 133.788 Z " fill="none" vector-effect="non-scaling-stroke" stroke-width="1" stroke="rgb(0,0,0)" stroke-linejoin="miter" stroke-linecap="square" stroke-miterlimit="3"/><path d=" M 130.793 79.977 L 149.288 79.977 L 149.288 275.977 L 130.793 275.977 L 130.793 79.977 Z " fill="none" vector-effect="non-scaling-stroke" stroke-width="1" stroke="rgb(0,0,0)" stroke-linejoin="miter" stroke-linecap="square" stroke-miterlimit="3"/><path d=" M 159.131 150.662 L 177.626 150.662 L 177.626 346.662 L 159.131 346.662 L 159.131 150.662 Z " fill="none" vector-effect="non-scaling-stroke" stroke-width="1" stroke="rgb(0,0,0)" stroke-linejoin="miter" stroke-linecap="square" stroke-miterlimit="3"/><path d=" M 187.49 207.112 L 205.984 207.112 L 205.984 403.112 L 187.49 403.112 L 187.49 207.112 Z " fill="none" vector-effect="non-scaling-stroke" stroke-width="1" stroke="rgb(0,0,0)" stroke-linejoin="miter" stroke-linecap="square" stroke-miterlimit="3"/><path d=" M 212.506 120 L 231 120 L 231 316 L 212.506 316 L 212.506 120 Z " fill="none" vector-effect="non-scaling-stroke" stroke-width="1" stroke="rgb(0,0,0)" stroke-linejoin="miter" stroke-linecap="square" stroke-miterlimit="3"/><path d=" M 243 158 L 261.494 158 L 261.494 354 L 243 354 L 243 158 Z " fill="none" vector-effect="non-scaling-stroke" stroke-width="1" stroke="rgb(0,0,0)" stroke-linejoin="miter" stroke-linecap="square" stroke-miterlimit="3"/><path d=" M 270 93.5 L 288.494 93.5 L 288.494 289.5 L 270 289.5 L 270 93.5 Z " fill="none" vector-effect="non-scaling-stroke" stroke-width="1" stroke="rgb(0,0,0)" stroke-linejoin="miter" stroke-linecap="square" stroke-miterlimit="3"/><path d=" M 297.99 136.509 L 316.484 136.509 L 316.484 332.509 L 297.99 332.509 L 297.99 136.509 Z " fill="none" vector-effect="non-scaling-stroke" stroke-width="1" stroke="rgb(0,0,0)" stroke-linejoin="miter" stroke-linecap="square" stroke-miterlimit="3"/><path d=" M 329.374 181.989 L 347.869 181.989 L 347.869 377.989 L 329.374 377.989 L 329.374 181.989 Z " fill="none" vector-effect="non-scaling-stroke" stroke-width="1" stroke="rgb(0,0,0)" stroke-linejoin="miter" stroke-linecap="square" stroke-miterlimit="3"/><path d=" M 357.478 79.977 L 375.973 79.977 L 375.973 275.977 L 357.478 275.977 L 357.478 79.977 Z " fill="none" vector-effect="non-scaling-stroke" stroke-width="1" stroke="rgb(0,0,0)" stroke-linejoin="miter" stroke-linecap="square" stroke-miterlimit="3"/><path d=" M 390.87 153.247 L 409.365 153.247 L 409.365 349.247 L 390.87 349.247 L 390.87 153.247 Z " fill="none" vector-effect="non-scaling-stroke" stroke-width="1" stroke="rgb(0,0,0)" stroke-linejoin="miter" stroke-linecap="square" stroke-miterlimit="3"/><path d=" M 421.506 211.124 L 440 211.124 L 440 407.124 L 421.506 407.124 L 421.506 211.124 Z " fill="none" vector-effect="non-scaling-stroke" stroke-width="1" stroke="rgb(0,0,0)" stroke-linejoin="miter" stroke-linecap="square" stroke-miterlimit="3"/></g></svg>