<?xml version="1.0" encoding="UTF-8" standalone="no"?><!-- Generator: Gravit.io --><svg xmlns="http://www.w3.org/2000/svg" xmlns:xlink="http://www.w3.org/1999/xlink" style="isolation:isolate" viewBox="0 0 500 500" width="500pt" height="500pt"><defs><clipPath id="_clipPath_e2MpStWePobvaVnKEOapvkP1oqDOTZmH"><rect x="70.006" y="65.5" width="366.989" height="366.989"/></clipPath></defs><g clip-path="url(#_clipPath_e2MpStWePobvaVnKEOapvkP1oqDOTZmH)"><path d=" M 141.347 248.662 C 141.347 186.763 191.601 136.509 253.5 136.509 C 315.399 136.509 365.653 186.763 365.653 248.662 C 365.653 310.561 315.399 360.815 253.5 360.815 C 191.601 360.815 141.347 310.561 141.347 248.662 Z " fill="none" vector-effect="non-scaling-stroke" stroke-width="1" stroke="rgb(0,0,0)" stroke-linejoin="miter" stroke-linecap="square" stroke-miterlimit="3"/><path d=" M 253.5 67 Q 232.5 82 253.5 92 Q 274.5 102 253.5 120" fill="none" vector-effect="non-scaling-stroke" stroke-width="1" stroke="rgb(0,0,0)" stroke-linejoin="miter" stroke-linecap="square" stroke-miterlimit="3"/><path d=" M 253.5 430.989 Q 274.5 415.989 253.5 405.989 Q 232.5 395.989 253.5 377.989" fill="none" vector-effect="non-scaling-stroke" stroke-width="1" stroke="rgb(0,0,0)" stroke-linejoin="miter" stroke-linecap="square" stroke-miterlimit="3"/><path d=" M 71.506 245.5 Q 86.506 266.5 96.506 245.5 Q 106.506 224.5 124.506 245.5" fill="none" vector-effect="non-scaling-stroke" stroke-width="1" stroke="rgb(0,0,0)" stroke-linejoin="miter" stroke-linecap="square" stroke-miterlimit="3"/><path d=" M 435.494 245.5 Q 420.494 224.5 410.494 245.5 Q 400.494 266.5 382.494 245.5" fill="none" vector-effect="non-scaling-stroke" stroke-width="1" stroke="rgb(0,0,0)" stroke-linejoin="miter" stroke-linecap="square" stroke-miterlimit="3"/><path d=" M 162.503 87.888 Q 151.816 111.379 175.003 109.539 Q 198.189 107.699 189.003 133.788" fill="none" vector-effect="non-scaling-stroke" stroke-width="1" stroke="rgb(0,0,0)" stroke-linejoin="miter" stroke-linecap="square" stroke-miterlimit="3"/><path d=" M 344.497 403.112 Q 355.184 379.621 331.997 381.461 Q 308.811 383.301 317.997 357.212" fill="none" vector-effect="non-scaling-stroke" stroke-width="1" stroke="rgb(0,0,0)" stroke-linejoin="miter" stroke-linecap="square" stroke-miterlimit="3"/><path d=" M 94.141 333.471 Q 117.632 344.158 115.792 320.971 Q 113.952 297.784 140.041 306.971" fill="none" vector-effect="non-scaling-stroke" stroke-width="1" stroke="rgb(0,0,0)" stroke-linejoin="miter" stroke-linecap="square" stroke-miterlimit="3"/><path d=" M 409.365 151.477 Q 385.874 140.79 387.714 163.977 Q 389.554 187.163 363.465 177.977" fill="none" vector-effect="non-scaling-stroke" stroke-width="1" stroke="rgb(0,0,0)" stroke-linejoin="miter" stroke-linecap="square" stroke-miterlimit="3"/><path d=" M 97.401 153.629 Q 99.892 179.316 119.052 166.129 Q 138.212 152.943 143.301 180.129" fill="none" vector-effect="non-scaling-stroke" stroke-width="1" stroke="rgb(0,0,0)" stroke-linejoin="miter" stroke-linecap="square" stroke-miterlimit="3"/><path d=" M 412.625 335.624 Q 410.134 309.937 390.974 323.124 Q 371.814 336.31 366.725 309.124" fill="none" vector-effect="non-scaling-stroke" stroke-width="1" stroke="rgb(0,0,0)" stroke-linejoin="miter" stroke-linecap="square" stroke-miterlimit="3"/><path d=" M 160.99 400.491 Q 186.676 398.001 173.49 378.84 Q 160.303 359.68 187.49 354.592" fill="none" vector-effect="non-scaling-stroke" stroke-width="1" stroke="rgb(0,0,0)" stroke-linejoin="miter" stroke-linecap="square" stroke-miterlimit="3"/><path d=" M 342.984 85.268 Q 317.298 87.758 330.484 106.918 Q 343.671 126.078 316.484 131.167" fill="none" vector-effect="non-scaling-stroke" stroke-width="1" stroke="rgb(0,0,0)" stroke-linejoin="miter" stroke-linecap="square" stroke-miterlimit="3"/></g></svg>